<svg width="103" height="30" viewBox="0 0 103 30" fill="none" xmlns="http://www.w3.org/2000/svg">
<g clip-path="url(#clip0_401_109)">
<path d="M87.8439 29.9981C95.9913 29.9981 102.596 23.3934 102.596 15.246C102.596 7.09864 95.9913 0.493896 87.8439 0.493896C79.6965 0.493896 73.0918 7.09864 73.0918 15.246C73.0918 23.3934 79.6965 29.9981 87.8439 29.9981Z" fill="white"/>
<path d="M101.15 15.2479C101.152 17.6195 100.519 19.948 99.3136 21.9911C99.3136 21.9911 94.6792 23.6248 87.8458 23.6248C81.0125 23.6248 76.378 21.9911 76.378 21.9911C72.6524 15.6572 74.7669 7.50375 81.1007 3.77817C87.4346 0.0525831 95.5881 2.167 99.3136 8.50087C100.515 10.5458 101.15 12.8743 101.15 15.2479Z" fill="#EF7D05"/>
<path d="M89.8194 16.3803H85.7126C85.9417 16.0404 86.1201 15.6686 86.2422 15.278C86.3849 14.848 86.4938 14.4086 86.5727 13.9635C86.6534 13.5129 86.7097 13.0735 86.7435 12.6491C86.7773 12.2247 86.7942 10.3281 86.7942 10.007V9.35538H89.8194V16.3803ZM93.8079 16.7558C93.8079 16.5493 93.6389 16.3803 93.4323 16.3803H92.7075V7.97518V7.34236C92.7075 7.1358 92.5385 6.9668 92.3319 6.9668H85.0742C84.9089 6.96116 84.7437 6.97994 84.5841 7.02125C84.4526 7.05505 84.3343 7.12829 84.2442 7.23157C84.1503 7.36677 84.1052 7.53014 84.1184 7.69351V8.66434C84.1184 8.99296 84.1184 9.34599 84.1033 9.72719C84.0883 10.1084 84.0695 12.0125 84.0339 12.4087C83.9982 12.8049 83.9418 13.2011 83.8724 13.5917C83.8048 13.9692 83.709 14.341 83.5851 14.7034C83.4705 15.0395 83.3203 15.3625 83.1325 15.6648C82.9992 15.8827 82.8358 16.0798 82.648 16.2507C82.5598 16.3277 82.4509 16.3803 82.3344 16.3972C82.233 16.4122 82.1373 16.4479 82.0509 16.5023C81.9213 16.6225 81.8575 16.799 81.8838 16.9737V20.2129C81.8838 20.4195 82.0528 20.5885 82.2593 20.5885H84.4188C84.6254 20.5885 84.7944 20.4195 84.7944 20.2129V19.8768V18.7257H90.9067V19.5838V20.2129C90.9067 20.4195 91.0757 20.5885 91.2822 20.5885H93.4624C93.6689 20.5885 93.8379 20.4195 93.8379 20.2129V16.754H93.8079V16.7558Z" fill="white"/>
<path d="M76.9863 22.9263C81.2208 28.924 89.5151 30.353 95.5128 26.1186C96.7522 25.2435 97.8319 24.1637 98.7051 22.9263C98.7051 22.9263 93.3271 24.7684 87.8457 24.7684C82.3644 24.7684 76.9863 22.9263 76.9863 22.9263Z" fill="#5CBE1D"/>
<path d="M87.8457 24.7684C93.3271 24.7684 98.7051 22.9263 98.7051 22.9263C98.7051 22.9263 94.1439 26.6105 87.765 26.6105C81.386 26.6105 76.9863 22.9263 76.9863 22.9263C76.9863 22.9263 82.3644 24.7684 87.8457 24.7684Z" fill="#8BD40A"/>
</g>
<g clip-path="url(#clip1_401_109)">
<path d="M42.4543 22.1184C41.6413 23.538 40.2127 24.5719 38.2237 24.5719C35.7375 24.5719 33.4959 22.2649 33.4959 18.6541C33.4959 15.3828 35.0429 12.7596 37.0635 12.7596C37.9238 12.7596 38.3421 13.1916 38.5868 13.6468C38.8946 14.2255 38.8551 14.997 38.8788 15.6914C38.9025 16.6018 39.3682 17.2576 40.4258 17.2576C41.4835 17.2576 42.0754 16.5864 42.0754 15.5988C42.0754 13.4539 39.7391 12.2272 37.4029 12.2272C33.346 12.2272 29.9994 15.2362 29.9994 19.904C29.9994 23.9701 32.8803 26.9019 36.7162 26.9019C40.0154 26.9019 41.736 24.6644 42.6989 22.2572L42.4543 22.1106V22.1184ZM2.54032 22.8899C2.54032 25.436 2.27196 26.2615 1.08804 26.3773L0.401367 26.4467V26.6627H8.30207V26.4467L7.6154 26.3773C6.45515 26.2538 6.13944 25.436 6.13944 22.8899V6.19375H7.6154C10.52 6.19375 12.2169 8.16889 12.2169 11.2705C12.2169 14.7579 9.53335 16.054 7.41808 16.054H7.19708V16.2701C7.78904 16.3627 8.47571 17.4274 9.19396 18.5307C10.2042 20.0969 11.4829 22.2341 12.5405 23.916C13.8191 25.9606 14.9557 26.655 17.5367 26.655H20.1413V26.439L19.6993 26.3695C18.1523 26.1304 16.6685 23.4608 15.3188 21.4163C14.1585 19.6571 12.3195 16.9413 11.6013 15.9074C14.0401 14.8736 16.2028 13.2611 16.2028 10.3986C16.2028 7.15046 13.2509 5.58423 8.20736 5.58423H0.401367V5.80798L1.08804 5.87741C2.27196 6.00086 2.54032 6.81869 2.54032 9.36478V22.8899ZM45.8797 10.2598V22.913C45.8797 25.4591 45.6351 26.2847 44.6485 26.3773L43.9065 26.4467V26.6627H51.1443V26.4467L50.576 26.3773C49.5894 26.2538 49.3921 25.436 49.3921 22.8899V15.7686C50.2287 14.8582 51.2153 14.3721 52.6676 14.3721C54.5145 14.3721 55.5958 15.5988 55.5958 18.1758V22.913C55.5958 25.4591 55.3274 26.2847 54.4119 26.3773L53.7489 26.4467V26.6627H60.9866V26.4467L60.3473 26.3773C59.3607 26.2538 59.116 25.436 59.116 22.8899V17.3811C59.116 13.6777 57.0954 12.2349 54.4908 12.2349C52.2256 12.2349 50.4339 13.9169 49.3999 15.1899V5.68453L49.2263 5.63824C47.9713 6.24004 45.7061 6.93443 43.8355 7.20446V7.44364L44.4512 7.4205C44.9405 7.39735 45.4378 7.54394 45.6351 7.922C45.9034 8.45436 45.8797 9.0253 45.8797 10.2521M22.9196 22.8899C22.9196 25.436 22.6986 26.2847 21.6883 26.3773L20.9464 26.4467V26.6627H28.3498V26.4467L27.6631 26.3773C26.6765 26.2847 26.4319 25.436 26.4319 22.8899V11.6331L26.3371 11.5868C25.0822 12.1886 22.7459 12.883 20.8753 13.153V13.3922L21.491 13.3691C22.004 13.3459 22.4776 13.5388 22.6749 13.9246C22.9432 14.457 22.9196 15.2748 22.9196 16.5015V22.8976V22.8899ZM24.2456 5.78483C22.817 5.78483 21.9566 6.86499 21.9566 8.06859C21.9566 9.34163 22.8406 10.2829 24.2692 10.2829C25.6189 10.2829 26.4555 9.34163 26.4555 8.06859C26.4555 6.79555 25.6031 5.78483 24.2456 5.78483ZM59.929 9.78913C58.6187 9.78913 57.719 8.89414 57.719 7.69825C57.719 6.50236 58.6187 5.59194 59.8737 5.59194C61.1287 5.59194 62.0284 6.55637 62.0284 7.69825C62.0284 8.84013 61.1602 9.78913 59.9211 9.78913M60.8682 8.86328C60.5998 8.86328 60.513 8.73212 60.3236 8.50065L59.9368 7.98372C59.85 7.86799 59.7869 7.76769 59.7001 7.76769V7.7214C60.1421 7.7214 60.292 7.4745 60.292 7.12731C60.292 6.82641 60.1421 6.62581 59.8185 6.62581H59.6132V8.37721C59.6132 8.69354 59.6132 8.80927 59.9211 8.8247V8.87099H58.8476V8.8247C59.1555 8.80927 59.1555 8.69354 59.1555 8.37721V6.91899C59.1555 6.61809 59.1555 6.58723 58.8634 6.55637V6.51008H59.8974C60.3552 6.51008 60.813 6.67982 60.813 7.05787C60.813 7.38963 60.5604 7.55937 60.2052 7.69054L60.2368 7.64424L60.8682 8.49294C61.0576 8.75526 61.1602 8.8247 61.2549 8.8247V8.87099H60.8682V8.86328ZM59.8658 5.82341C58.7292 5.82341 57.9794 6.6721 57.9794 7.69825C57.9794 8.80927 58.8476 9.55767 59.9132 9.55767C60.9787 9.55767 61.7443 8.80927 61.7443 7.69825C61.7443 6.6721 60.9787 5.82341 59.8579 5.82341" fill="white"/>
</g>
<defs>
<clipPath id="clip0_401_109">
<rect width="29.5061" height="29.5061" fill="white" transform="translate(73.0918 0.493896)"/>
</clipPath>
<clipPath id="clip1_401_109">
<rect width="61.635" height="21.31" fill="white" transform="translate(0.401367 5.59192)"/>
</clipPath>
</defs>
</svg>
