<svg width="309" height="91" viewBox="0 0 309 91" fill="none" xmlns="http://www.w3.org/2000/svg">
<g clip-path="url(#clip0_413_404)">
<path d="M263.497 90.9942C288.624 90.9942 308.994 70.6245 308.994 45.4971C308.994 20.3697 288.624 0 263.497 0C238.37 0 218 20.3697 218 45.4971C218 70.6245 238.37 90.9942 263.497 90.9942Z" fill="white"/>
<path d="M304.535 45.503C304.541 52.8175 302.589 59.9988 298.871 66.2998C298.871 66.2998 284.578 71.3383 263.503 71.3383C242.428 71.3383 228.135 66.2998 228.135 66.2998C216.645 46.7655 223.166 21.6193 242.7 10.1292C262.235 -1.36092 287.381 5.16018 298.871 24.6945C302.578 31.0013 304.535 38.1826 304.535 45.503Z" fill="#EF7D05"/>
<path d="M269.59 48.9951H256.924C257.631 47.9468 258.181 46.8001 258.557 45.5955C258.997 44.2693 259.333 42.9141 259.576 41.5415C259.826 40.1516 259.999 38.7964 260.103 37.4876C260.208 36.1787 260.26 30.3294 260.26 29.3391V27.3295H269.59V48.9951ZM281.891 50.1533C281.891 49.5163 281.369 48.9951 280.732 48.9951H278.497V23.0728V21.1211C278.497 20.4841 277.976 19.9629 277.339 19.9629H254.955C254.445 19.9455 253.936 20.0034 253.443 20.1308C253.038 20.235 252.673 20.4609 252.395 20.7794C252.106 21.1964 251.967 21.7003 252.007 22.2041V25.1983C252.007 26.2118 252.007 27.3005 251.961 28.4762C251.914 29.6518 251.857 35.5243 251.747 36.7463C251.636 37.9683 251.463 39.1902 251.248 40.3949C251.04 41.5589 250.745 42.7056 250.362 43.8233C250.009 44.86 249.546 45.8561 248.967 46.7885C248.555 47.4603 248.052 48.0684 247.472 48.5955C247.2 48.8329 246.864 48.9951 246.505 49.0472C246.193 49.0935 245.897 49.2035 245.631 49.3715C245.231 49.7421 245.034 50.2865 245.115 50.8251V60.8153C245.115 61.4523 245.637 61.9735 246.274 61.9735H252.934C253.571 61.9735 254.092 61.4523 254.092 60.8153V59.7786V56.2285H272.943V58.8752V60.8153C272.943 61.4523 273.464 61.9735 274.101 61.9735H280.825C281.462 61.9735 281.983 61.4523 281.983 60.8153V50.1475H281.891V50.1533Z" fill="white"/>
<path d="M230.011 69.1838C243.071 87.6815 268.651 92.0888 287.149 79.0292C290.971 76.3304 294.301 73.0004 296.994 69.1838C296.994 69.1838 280.408 74.8652 263.503 74.8652C246.598 74.8652 230.011 69.1838 230.011 69.1838Z" fill="#5CBE1D"/>
<path d="M263.503 74.8652C280.408 74.8652 296.994 69.1838 296.994 69.1838C296.994 69.1838 282.927 80.5465 263.254 80.5465C243.58 80.5465 230.011 69.1838 230.011 69.1838C230.011 69.1838 246.598 74.8652 263.503 74.8652Z" fill="#8BD40A"/>
</g>
<g clip-path="url(#clip1_413_404)">
<path d="M128.27 65.4092C125.791 69.7394 121.433 72.8929 115.366 72.8929C107.783 72.8929 100.946 65.8564 100.946 54.8426C100.946 44.8643 105.664 36.8629 111.827 36.8629C114.452 36.8629 115.727 38.1808 116.474 39.5692C117.413 41.3343 117.292 43.6876 117.365 45.8057C117.437 48.5826 118.857 50.583 122.083 50.583C125.309 50.583 127.115 48.5356 127.115 45.5233C127.115 38.9809 119.989 35.2391 112.863 35.2391C100.488 35.2391 90.2804 44.4172 90.2804 58.6551C90.2804 71.0573 99.0677 80.0001 110.768 80.0001C120.831 80.0001 126.08 73.1753 129.017 65.8328L128.27 65.3857V65.4092ZM6.52427 67.7626C6.52427 75.5287 5.70572 78.0468 2.09451 78.3998L0 78.6116V79.2706H24.0989V78.6116L22.0044 78.3998C18.4654 78.0233 17.5024 75.5287 17.5024 67.7626V16.8357H22.0044C30.8639 16.8357 36.04 22.8603 36.04 32.3209C36.04 42.9581 27.8545 46.9118 21.4025 46.9118H20.7284V47.5707C22.534 47.8531 24.6285 51.1007 26.8193 54.4661C29.9009 59.2434 33.801 65.7622 37.027 70.8926C40.9271 77.129 44.3939 79.247 52.2664 79.247H60.211V78.5881L58.8628 78.3763C54.1442 77.6467 49.6181 69.5041 45.5013 63.2677C41.9623 57.902 36.3529 49.6181 34.1621 46.4646C41.6012 43.3111 48.1977 38.3926 48.1977 29.6616C48.1977 19.7539 39.1937 14.9766 23.81 14.9766H0V15.659L2.09451 15.8708C5.70572 16.2474 6.52427 18.742 6.52427 26.5081V67.7626ZM138.719 29.238V67.8332C138.719 75.5993 137.973 78.1174 134.963 78.3998L132.7 78.6116V79.2706H154.777V78.6116L153.043 78.3998C150.034 78.0233 149.432 75.5287 149.432 67.7626V46.041C151.984 43.264 154.993 41.7814 159.423 41.7814C165.057 41.7814 168.355 45.5233 168.355 53.3835V67.8332C168.355 75.5993 167.536 78.1174 164.744 78.3998L162.721 78.6116V79.2706H184.798V78.6116L182.848 78.3998C179.839 78.0233 179.092 75.5287 179.092 67.7626V50.9595C179.092 39.6634 172.929 35.2626 164.984 35.2626C158.075 35.2626 152.61 40.3929 149.456 44.276V15.2825L148.927 15.1413C145.099 16.9769 138.189 19.095 132.484 19.9186V20.6482L134.361 20.5776C135.854 20.507 137.371 20.9541 137.973 22.1073C138.791 23.7311 138.719 25.4726 138.719 29.2144M68.6854 67.7626C68.6854 75.5287 68.0113 78.1174 64.9297 78.3998L62.6667 78.6116V79.2706H85.2488V78.6116L83.1543 78.3998C80.145 78.1174 79.3986 75.5287 79.3986 67.7626V33.427L79.1097 33.2858C75.2818 35.1214 68.1557 37.2394 62.45 38.0631V38.7926L64.3278 38.722C65.8927 38.6514 67.3372 39.2398 67.939 40.4165C68.7576 42.0403 68.6854 44.5349 68.6854 48.2767V67.7861V67.7626ZM72.7299 15.5884C68.3724 15.5884 65.7482 18.8832 65.7482 22.5544C65.7482 26.4375 68.4446 29.3086 72.8021 29.3086C76.9189 29.3086 79.4709 26.4375 79.4709 22.5544C79.4709 18.6713 76.8708 15.5884 72.7299 15.5884ZM181.572 27.8024C177.576 27.8024 174.831 25.0725 174.831 21.4248C174.831 17.7771 177.576 15.0001 181.403 15.0001C185.231 15.0001 187.976 17.9418 187.976 21.4248C187.976 24.9078 185.328 27.8024 181.548 27.8024M184.437 24.9784C183.618 24.9784 183.354 24.5783 182.776 23.8723L181.596 22.2955C181.331 21.9425 181.139 21.6366 180.874 21.6366V21.4954C182.222 21.4954 182.679 20.7423 182.679 19.6833C182.679 18.7655 182.222 18.1536 181.235 18.1536H180.609V23.4958C180.609 24.4606 180.609 24.8136 181.548 24.8607V25.0019H178.274V24.8607C179.213 24.8136 179.213 24.4606 179.213 23.4958V19.0479C179.213 18.1301 179.213 18.0359 178.322 17.9418V17.8006H181.476C182.872 17.8006 184.268 18.3183 184.268 19.4715C184.268 20.4834 183.498 21.0012 182.415 21.4013L182.511 21.2601L184.437 23.8488C185.015 24.6489 185.328 24.8607 185.617 24.8607V25.0019H184.437V24.9784ZM181.379 15.7061C177.913 15.7061 175.626 18.2948 175.626 21.4248C175.626 24.8136 178.274 27.0964 181.524 27.0964C184.774 27.0964 187.109 24.8136 187.109 21.4248C187.109 18.2948 184.774 15.7061 181.355 15.7061" fill="white"/>
</g>
<defs>
<clipPath id="clip0_413_404">
<rect width="91" height="91" fill="white" transform="translate(218)"/>
</clipPath>
<clipPath id="clip1_413_404">
<rect width="188" height="65" fill="white" transform="translate(0 15)"/>
</clipPath>
</defs>
</svg>
